<svg width="1200" height="720" viewBox="0 0 1200 720" fill="none" xmlns="http://www.w3.org/2000/svg">
  <defs>
    <linearGradient id="ridertify-gradient" x1="0" y1="0" x2="1200" y2="720" gradientUnits="userSpaceOnUse">
      <stop offset="0" stop-color="#0f172a" />
      <stop offset="1" stop-color="#1d4ed8" />
    </linearGradient>
    <linearGradient id="ridertify-card" x1="0" y1="0" x2="600" y2="400" gradientUnits="userSpaceOnUse">
      <stop offset="0" stop-color="#1e293b" />
      <stop offset="1" stop-color="#020617" />
    </linearGradient>
  </defs>
  <rect width="1200" height="720" rx="48" fill="url(#ridertify-gradient)" />
  <g filter="url(#shadow)">
    <rect x="160" y="120" width="880" height="480" rx="40" fill="rgba(15,23,42,0.5)" stroke="rgba(226,232,240,0.25)" />
  </g>
  <rect x="220" y="200" width="520" height="320" rx="32" fill="url(#ridertify-card)" stroke="rgba(148,163,184,0.35)" />
  <rect x="780" y="200" width="200" height="320" rx="28" fill="rgba(15,23,42,0.6)" stroke="rgba(148,163,184,0.35)" />
  <path d="M260 420C360 320 420 520 520 360C600 240 640 420 720 320" stroke="#38bdf8" stroke-width="12" stroke-linecap="round" fill="none" />
  <circle cx="520" cy="360" r="18" fill="#38bdf8" />
  <rect x="820" y="240" width="120" height="16" rx="8" fill="#38bdf8" opacity="0.8" />
  <rect x="820" y="272" width="80" height="12" rx="6" fill="#cbd5f5" opacity="0.8" />
  <rect x="820" y="316" width="140" height="12" rx="6" fill="#94a3b8" opacity="0.6" />
  <rect x="820" y="344" width="140" height="12" rx="6" fill="#94a3b8" opacity="0.4" />
  <rect x="820" y="372" width="120" height="12" rx="6" fill="#94a3b8" opacity="0.4" />
  <rect x="820" y="428" width="140" height="36" rx="18" fill="#1d4ed8" opacity="0.9" />
  <defs>
    <filter id="shadow" x="160" y="120" width="880" height="480" filterUnits="userSpaceOnUse" color-interpolation-filters="sRGB">
      <feFlood flood-opacity="0" result="BackgroundImageFix" />
      <feGaussianBlur stdDeviation="24" />
      <feComposite in2="SourceAlpha" operator="in" result="effect1_backgroundBlur" />
    </filter>
  </defs>
</svg>
